<?xml version="1.0" encoding="UTF-8"?><svg xmlns="http://www.w3.org/2000/svg" xmlns:xlink="http://www.w3.org/1999/xlink" version="1.1" x="0px" y="0px" width="100px" height="100px" viewBox="0 0 100 100" xml:space="preserve"><g id="_x37_7_Essential_Icons"><path id="List" d="M50 12c-21 0-38 17-38 38s17 38 38 38 38-17 38-38-17-38-38-38zm0 72c-18.8 0-34-15.2-34-34s15.2-34 34-34 34 15.2 34 34-15.2 34-34 34zm19.5-34c0 1.1-.9 2-2 2H45.1c-1.1 0-2-.9-2-2s.9-2 2-2h22.4c1.1 0 2 .9 2 2zm0 12c0 1.1-.9 2-2 2H45.1c-1.1 0-2-.9-2-2s.9-2 2-2h22.4c1.1 0 2 .9 2 2zM38.3 50c0 1.1-.9 2-2 2h-3.8c-1.1 0-2-.9-2-2s.9-2 2-2h3.8c1.1 0 2 .9 2 2zm0 12c0 1.1-.9 2-2 2h-3.8c-1.1 0-2-.9-2-2s.9-2 2-2h3.8c1.1 0 2 .9 2 2zm31.2-24c0 1.1-.9 2-2 2H45.1c-1.1 0-2-.9-2-2s.9-2 2-2h22.4c1.1 0 2 .9 2 2zm-31.2 0c0 1.1-.9 2-2 2h-3.8c-1.1 0-2-.9-2-2s.9-2 2-2h3.8c1.1 0 2 .9 2 2z"/></g><g id="Info"><path fill="#00F" d="M244-1210V474h-1784v-1684H244m8-8h-1800V482H252v-1700z" id="BORDER"/></g><metadata><rdf:RDF xmlns:rdf="http://www.w3.org/1999/02/22-rdf-syntax-ns#" xmlns:rdfs="http://www.w3.org/2000/01/rdf-schema#" xmlns:dc="http://purl.org/dc/elements/1.1/"><rdf:Description about="https://iconscout.com/legal#licenses" dc:title="essential,s,list" dc:description="essential,s,list" dc:publisher="Iconscout" dc:date="2017-09-15" dc:format="image/svg+xml" dc:language="en"><dc:creator><rdf:Bag><rdf:li>Bryn Taylor</rdf:li></rdf:Bag></dc:creator></rdf:Description></rdf:RDF></metadata></svg>