<!-- Generated by IcoMoon.io -->
<svg version="1.1" xmlns="http://www.w3.org/2000/svg" width="640" height="640" viewBox="0 0 640 640">
<title></title>
<g id="icomoon-ignore">
</g>
<path d="M640 587.2v20.8c0 17.673-14.327 32-32 32v0h-64c-300.443 0-544-243.557-544-544v0-64c0-17.673 14.327-32 32-32v0h128c17.673 0 32 14.327 32 32v0 128c0 17.92-9.92 41.92-22.4 54.4l-68.48 68.48c48.64 115.2 140.8 207.36 256 256l67.84-67.84c12.8-12.8 36.8-22.72 54.4-22.72h128.64c17.535 0.181 31.68 14.438 31.68 31.998 0 0.001 0 0.001 0 0.002v0 107.2z"></path>
</svg>
