<!-- Generated by IcoMoon.io -->
<svg version="1.1" xmlns="http://www.w3.org/2000/svg" width="640" height="640" viewBox="0 0 640 640">
<title></title>
<g id="icomoon-ignore">
</g>
<path d="M162.56 389.12c-17.234 16.857-40.844 27.259-66.882 27.259-52.843 0-95.68-42.837-95.68-95.68 0-0.246 0.001-0.492 0.003-0.737v0.037c0.034-52.994 43.001-95.941 96-95.941 25.858 0 49.329 10.224 66.59 26.849l-0.030-0.029 286.080-143.040c-0.48-3.606-0.754-7.776-0.754-12.009 0-53.019 42.981-96 96-96s96 42.981 96 96c0 53.019-42.981 96-96 96-25.803 0-49.228-10.18-66.479-26.743l0.033 0.031-286.080 143.040c0.462 3.555 0.726 7.667 0.726 11.84s-0.264 8.285-0.775 12.319l0.049-0.479 286.080 143.040c17.234-16.857 40.844-27.259 66.883-27.259 52.842 0 95.68 42.837 95.68 95.68 0 0.246-0.001 0.492-0.002 0.737v-0.037c-0.454 52.673-43.259 95.197-95.997 95.197-53.019 0-96-42.981-96-96 0-3.889 0.231-7.725 0.681-11.493l-0.044 0.456-286.080-143.040z"></path>
</svg>
