<!-- Generated by IcoMoon.io -->
<svg version="1.1" xmlns="http://www.w3.org/2000/svg" width="640" height="640" viewBox="0 0 640 640">
<title></title>
<g id="icomoon-ignore">
</g>
<path d="M128 64h512l-96 288h-416c-17.673 0-32 14.327-32 32s14.327 32 32 32v0h416v64h-416c-53.019 0-96-42.981-96-96s42.981-96 96-96v0h10.56l-42.56-128-32-96h-64v-64h96c17.673 0 32 14.327 32 32v0 32zM160 640c-35.346 0-64-28.654-64-64s28.654-64 64-64v0c35.346 0 64 28.654 64 64s-28.654 64-64 64v0zM480 640c-35.346 0-64-28.654-64-64s28.654-64 64-64v0c35.346 0 64 28.654 64 64s-28.654 64-64 64v0z"></path>
</svg>
